<mxfile host="app.diagrams.net" agent="Mozilla/5.0 (Windows NT 10.0; Win64; x64) AppleWebKit/537.36 (KHTML, like Gecko) Chrome/128.0.0.0 Safari/537.36" version="24.7.8">
  <diagram name="Page-1" id="Oiq9AGII3D0nvruZMA7q">
    <mxGraphModel dx="1050" dy="522" grid="1" gridSize="10" guides="1" tooltips="1" connect="1" arrows="1" fold="1" page="1" pageScale="1" pageWidth="827" pageHeight="1169" math="0" shadow="0">
      <root>
        <mxCell id="0" />
        <mxCell id="1" parent="0" />
        <mxCell id="CLPhiW2gWFfIjptXXEM1-1" value="1" style="ellipse;whiteSpace=wrap;html=1;strokeWidth=2;fillWeight=2;hachureGap=8;fillColor=#dae8fc;fillStyle=dots;sketch=1;strokeColor=#6c8ebf;fontFamily=Comic Sans MS;fontSize=16;" vertex="1" parent="1">
          <mxGeometry x="230" y="240" width="60" height="60" as="geometry" />
        </mxCell>
        <mxCell id="CLPhiW2gWFfIjptXXEM1-2" value="1" style="ellipse;whiteSpace=wrap;html=1;strokeWidth=2;fillWeight=2;hachureGap=8;fillColor=#ffe6cc;fillStyle=dots;sketch=1;strokeColor=#d79b00;fontFamily=Comic Sans MS;fontSize=16;" vertex="1" parent="1">
          <mxGeometry x="230" y="420" width="60" height="60" as="geometry" />
        </mxCell>
        <mxCell id="CLPhiW2gWFfIjptXXEM1-3" value="2" style="ellipse;whiteSpace=wrap;html=1;strokeWidth=2;fillWeight=2;hachureGap=8;fillColor=#dae8fc;fillStyle=dots;sketch=1;strokeColor=#6c8ebf;fontFamily=Comic Sans MS;fontSize=16;" vertex="1" parent="1">
          <mxGeometry x="354" y="240" width="60" height="60" as="geometry" />
        </mxCell>
        <mxCell id="CLPhiW2gWFfIjptXXEM1-4" value="3" style="ellipse;whiteSpace=wrap;html=1;strokeWidth=2;fillWeight=2;hachureGap=8;fillColor=#ffe6cc;fillStyle=dots;sketch=1;strokeColor=#d79b00;fontFamily=Comic Sans MS;fontSize=16;" vertex="1" parent="1">
          <mxGeometry x="354" y="420" width="60" height="60" as="geometry" />
        </mxCell>
        <mxCell id="CLPhiW2gWFfIjptXXEM1-5" value="" style="endArrow=classic;html=1;rounded=0;strokeWidth=2;exitX=1;exitY=0.5;exitDx=0;exitDy=0;entryX=0;entryY=0.5;entryDx=0;entryDy=0;" edge="1" parent="1" source="CLPhiW2gWFfIjptXXEM1-1" target="CLPhiW2gWFfIjptXXEM1-3">
          <mxGeometry width="50" height="50" relative="1" as="geometry">
            <mxPoint x="390" y="300" as="sourcePoint" />
            <mxPoint x="440" y="250" as="targetPoint" />
          </mxGeometry>
        </mxCell>
        <mxCell id="CLPhiW2gWFfIjptXXEM1-6" value="" style="endArrow=classic;html=1;rounded=0;strokeWidth=2;exitX=1;exitY=0.5;exitDx=0;exitDy=0;entryX=0;entryY=0.5;entryDx=0;entryDy=0;" edge="1" parent="1" source="CLPhiW2gWFfIjptXXEM1-2" target="CLPhiW2gWFfIjptXXEM1-4">
          <mxGeometry width="50" height="50" relative="1" as="geometry">
            <mxPoint x="300" y="340" as="sourcePoint" />
            <mxPoint x="364" y="340" as="targetPoint" />
          </mxGeometry>
        </mxCell>
        <mxCell id="CLPhiW2gWFfIjptXXEM1-7" value="4" style="ellipse;whiteSpace=wrap;html=1;strokeWidth=2;fillWeight=2;hachureGap=8;fillColor=#dae8fc;fillStyle=dots;sketch=1;strokeColor=#6c8ebf;fontFamily=Comic Sans MS;fontSize=16;" vertex="1" parent="1">
          <mxGeometry x="470" y="240" width="60" height="60" as="geometry" />
        </mxCell>
        <mxCell id="CLPhiW2gWFfIjptXXEM1-8" value="" style="endArrow=classic;html=1;rounded=0;strokeWidth=2;exitX=1;exitY=0.5;exitDx=0;exitDy=0;entryX=0;entryY=0.5;entryDx=0;entryDy=0;" edge="1" parent="1" target="CLPhiW2gWFfIjptXXEM1-7" source="CLPhiW2gWFfIjptXXEM1-3">
          <mxGeometry width="50" height="50" relative="1" as="geometry">
            <mxPoint x="460" y="190" as="sourcePoint" />
            <mxPoint x="524" y="190" as="targetPoint" />
          </mxGeometry>
        </mxCell>
        <mxCell id="CLPhiW2gWFfIjptXXEM1-9" value="4" style="ellipse;whiteSpace=wrap;html=1;strokeWidth=2;fillWeight=2;hachureGap=8;fillColor=#ffe6cc;fillStyle=dots;sketch=1;strokeColor=#d79b00;fontFamily=Comic Sans MS;fontSize=16;" vertex="1" parent="1">
          <mxGeometry x="470" y="420" width="60" height="60" as="geometry" />
        </mxCell>
        <mxCell id="CLPhiW2gWFfIjptXXEM1-10" value="" style="endArrow=classic;html=1;rounded=0;strokeWidth=2;exitX=1;exitY=0.5;exitDx=0;exitDy=0;entryX=0;entryY=0.5;entryDx=0;entryDy=0;" edge="1" parent="1" source="CLPhiW2gWFfIjptXXEM1-4" target="CLPhiW2gWFfIjptXXEM1-9">
          <mxGeometry width="50" height="50" relative="1" as="geometry">
            <mxPoint x="424" y="340" as="sourcePoint" />
            <mxPoint x="480" y="340" as="targetPoint" />
          </mxGeometry>
        </mxCell>
        <mxCell id="CLPhiW2gWFfIjptXXEM1-11" value="" style="endArrow=classic;html=1;rounded=0;strokeWidth=2;entryX=0.5;entryY=0;entryDx=0;entryDy=0;fillColor=#f8cecc;strokeColor=#77FC35;" edge="1" parent="1" target="CLPhiW2gWFfIjptXXEM1-1">
          <mxGeometry width="50" height="50" relative="1" as="geometry">
            <mxPoint x="260" y="200" as="sourcePoint" />
            <mxPoint x="300" y="130" as="targetPoint" />
          </mxGeometry>
        </mxCell>
        <mxCell id="CLPhiW2gWFfIjptXXEM1-12" value="" style="endArrow=classic;html=1;rounded=0;strokeWidth=2;entryX=0.5;entryY=0;entryDx=0;entryDy=0;strokeColor=#77FC35;" edge="1" parent="1" target="CLPhiW2gWFfIjptXXEM1-2">
          <mxGeometry width="50" height="50" relative="1" as="geometry">
            <mxPoint x="260" y="380" as="sourcePoint" />
            <mxPoint x="259.5" y="420" as="targetPoint" />
          </mxGeometry>
        </mxCell>
        <mxCell id="CLPhiW2gWFfIjptXXEM1-13" value="0" style="ellipse;whiteSpace=wrap;html=1;strokeWidth=2;fillWeight=2;hachureGap=8;fillColor=#f5f5f5;fillStyle=dots;sketch=1;strokeColor=#666666;fontFamily=Comic Sans MS;fontSize=16;fontColor=#333333;" vertex="1" parent="1">
          <mxGeometry x="720" y="320" width="60" height="60" as="geometry" />
        </mxCell>
        <mxCell id="CLPhiW2gWFfIjptXXEM1-14" value="" style="endArrow=classic;html=1;rounded=0;strokeWidth=2;fillColor=#f8cecc;strokeColor=#FF0000;entryX=0.5;entryY=0;entryDx=0;entryDy=0;" edge="1" parent="1" target="CLPhiW2gWFfIjptXXEM1-13">
          <mxGeometry width="50" height="50" relative="1" as="geometry">
            <mxPoint x="749.5" y="270" as="sourcePoint" />
            <mxPoint x="750" y="320" as="targetPoint" />
          </mxGeometry>
        </mxCell>
        <mxCell id="CLPhiW2gWFfIjptXXEM1-15" value="&lt;font style=&quot;font-size: 16px;&quot;&gt;&lt;b&gt;dummy&lt;/b&gt;&lt;/font&gt;" style="text;html=1;align=center;verticalAlign=middle;whiteSpace=wrap;rounded=0;fontSize=16;textShadow=1;aspect=fixed;fontFamily=HarmonyOS Sans;" vertex="1" parent="1">
          <mxGeometry x="687.5" y="380" width="125" height="50" as="geometry" />
        </mxCell>
        <mxCell id="CLPhiW2gWFfIjptXXEM1-16" value="&lt;font style=&quot;font-size: 16px;&quot;&gt;&lt;b&gt;cur&lt;/b&gt;&lt;/font&gt;" style="text;html=1;align=center;verticalAlign=middle;whiteSpace=wrap;rounded=0;fontSize=16;textShadow=1;aspect=fixed;fontFamily=HarmonyOS Sans;" vertex="1" parent="1">
          <mxGeometry x="687.5" y="230" width="125" height="50" as="geometry" />
        </mxCell>
        <mxCell id="CLPhiW2gWFfIjptXXEM1-17" value="&lt;font style=&quot;font-size: 16px;&quot;&gt;&lt;b&gt;list1&lt;/b&gt;&lt;/font&gt;" style="text;html=1;align=center;verticalAlign=middle;whiteSpace=wrap;rounded=0;fontSize=16;textShadow=1;aspect=fixed;fontFamily=HarmonyOS Sans;" vertex="1" parent="1">
          <mxGeometry x="120" y="245" width="125" height="50" as="geometry" />
        </mxCell>
        <mxCell id="CLPhiW2gWFfIjptXXEM1-18" value="&lt;font style=&quot;font-size: 16px;&quot;&gt;&lt;b&gt;list2&lt;/b&gt;&lt;/font&gt;" style="text;html=1;align=center;verticalAlign=middle;whiteSpace=wrap;rounded=0;fontSize=16;textShadow=1;aspect=fixed;fontFamily=HarmonyOS Sans;" vertex="1" parent="1">
          <mxGeometry x="120" y="425" width="125" height="50" as="geometry" />
        </mxCell>
        <mxCell id="CLPhiW2gWFfIjptXXEM1-19" value="&lt;b&gt;虚拟头节点简化操作，处理链表起始状况&lt;/b&gt;" style="text;html=1;align=center;verticalAlign=middle;whiteSpace=wrap;rounded=0;fontSize=16;textShadow=1;aspect=fixed;fontFamily=HarmonyOS Sans;" vertex="1" parent="1">
          <mxGeometry x="603.75" y="391.5" width="292.5" height="117" as="geometry" />
        </mxCell>
        <mxCell id="CLPhiW2gWFfIjptXXEM1-20" value="&lt;b&gt;两个指针分别指向两个链表的头部&lt;/b&gt;" style="text;html=1;align=center;verticalAlign=middle;whiteSpace=wrap;rounded=0;fontSize=16;textShadow=1;aspect=fixed;fontFamily=HarmonyOS Sans;" vertex="1" parent="1">
          <mxGeometry x="237.75" y="480" width="292.5" height="117" as="geometry" />
        </mxCell>
      </root>
    </mxGraphModel>
  </diagram>
</mxfile>
